<svg width="20" height="20" viewBox="0 0 20 20" fill="none" xmlns="http://www.w3.org/2000/svg">
    <path fill-rule="evenodd" clip-rule="evenodd" d="M10.7614 1.30879C11.5187 0.636957 12.445 0.184448 13.4404 0C13.5083 0.246097 13.5291 0.502818 13.5017 0.756646C13.4547 1.23766 13.3352 1.7088 13.1472 2.15406C12.9458 2.64024 12.6647 3.08947 12.3156 3.4833C11.9596 3.89666 11.5325 4.24295 11.0545 4.50579C10.5358 4.73228 9.97766 4.85502 9.41173 4.86708C9.41077 4.07522 9.57806 3.2922 9.90253 2.56987C10.1108 2.10133 10.4017 1.67415 10.7614 1.30879ZM11.8385 4.83299C12.524 4.6078 13.2441 4.50625 13.9652 4.53306C14.5953 4.57063 15.2116 4.73282 15.7785 5.01023C16.4661 5.38286 17.0695 5.89339 17.5508 6.50988C17.1676 6.81941 16.8076 7.1566 16.4738 7.51875C15.3458 8.757 15.0253 10.5313 15.649 12.0859C15.8637 12.6198 16.168 13.1132 16.5487 13.5446C16.9684 14.0406 17.5186 14.4089 18.137 14.608C17.7561 15.7357 17.2118 16.8014 16.5215 17.771C16.0705 18.4558 15.4975 19.052 14.831 19.5297C14.3917 19.8347 13.8658 19.9901 13.3313 19.9727C12.7073 19.8966 12.0957 19.7408 11.5113 19.5092C10.9387 19.3023 10.3341 19.1984 9.7253 19.2025C9.11769 19.2599 8.5236 19.4165 7.96661 19.666C7.48739 19.878 6.97046 19.9916 6.4465 20C5.98542 19.9911 5.53632 19.8517 5.15134 19.5978C4.67844 19.2915 4.25735 18.9118 3.90389 18.4731C3.51802 18.0009 3.16932 17.4995 2.86095 16.9734C2.26404 15.9803 1.7902 14.9181 1.4499 13.8105C1.18002 12.9071 1.03103 11.9719 1.00682 11.0293C0.956263 9.8138 1.18722 8.60303 1.68167 7.49148C2.09826 6.57769 2.76464 5.80025 3.60396 5.24881C4.34764 4.79139 5.21351 4.57255 6.08522 4.62168C6.63763 4.65921 7.18533 4.74821 7.72121 4.88753C8.30693 5.06976 8.90339 5.21546 9.50716 5.32379C9.82487 5.36054 10.1467 5.33507 10.4547 5.24881C10.925 5.13974 11.3817 4.97614 11.8385 4.83299Z" fill="white"></path>
</svg>
