<svg width="96" height="96" viewBox="0 0 96 96" fill="none" xmlns="http://www.w3.org/2000/svg">
<g id="Icon_variants">
<path id="Avatar" d="M10.5 90C10.5 90 3 90 3 82.5C3 75 10.5 52.5 48 52.5C85.5 52.5 93 75 93 82.5C93 90 85.5 90 85.5 90H10.5ZM48 45C53.9674 45 59.6903 42.6295 63.9099 38.4099C68.1295 34.1903 70.5 28.4674 70.5 22.5C70.5 16.5326 68.1295 10.8097 63.9099 6.5901C59.6903 2.37053 53.9674 0 48 0C42.0326 0 36.3097 2.37053 32.0901 6.5901C27.8705 10.8097 25.5 16.5326 25.5 22.5C25.5 28.4674 27.8705 34.1903 32.0901 38.4099C36.3097 42.6295 42.0326 45 48 45Z" fill="white"/>
</g>
</svg>
