<svg width="96" height="96" viewBox="0 0 96 96" fill="none" xmlns="http://www.w3.org/2000/svg">
<g id="Icon_variants">
<path id="Picture" d="M42.3638 14.0625C42.3638 17.7921 40.8822 21.369 38.2449 24.0062C35.6077 26.6434 32.0309 28.125 28.3013 28.125C24.5716 28.125 20.9948 26.6434 18.3576 24.0062C15.7203 21.369 14.2388 17.7921 14.2388 14.0625C14.2388 10.3329 15.7203 6.75604 18.3576 4.11881C20.9948 1.48158 24.5716 0 28.3013 0C32.0309 0 35.6077 1.48158 38.2449 4.11881C40.8822 6.75604 42.3638 10.3329 42.3638 14.0625ZM66.1294 36.8606C65.6019 36.5964 65.0046 36.5047 64.4222 36.5986C63.8397 36.6925 63.3015 36.9672 62.8838 37.3838L42.015 63.8775L27.0525 48.285C26.5123 47.9253 25.8643 47.7636 25.2184 47.8271C24.5725 47.8907 23.9685 48.1757 23.5087 48.6338L3 73.125V84.375C3 85.8668 3.59263 87.2976 4.64752 88.3525C5.70242 89.4074 7.13316 90 8.625 90H87.375C88.1137 90 88.8451 89.8545 89.5276 89.5718C90.2101 89.2891 90.8301 88.8748 91.3525 88.3525C91.8748 87.8301 92.2891 87.2101 92.5718 86.5276C92.8545 85.8451 93 85.1137 93 84.375V59.0625L66.1294 36.8606Z" fill="white"/>
</g>
</svg>
