<svg width="250" height="48" viewBox="0 0 250 48" fill="none" xmlns="http://www.w3.org/2000/svg">
<g id="Input">
<path id="Polygon" d="M224.419 29.2068C223.585 30.1701 223.168 30.6518 222.672 30.8286C222.238 30.9837 221.762 30.9837 221.328 30.8286C220.832 30.6518 220.415 30.1701 219.581 29.2068L216.193 25.2949C214.735 23.6116 214.007 22.7699 213.986 22.0567C213.969 21.4369 214.24 20.8441 214.72 20.4516C215.272 20 216.385 20 218.612 20H225.388C227.615 20 228.728 20 229.28 20.4516C229.76 20.8441 230.031 21.4369 230.014 22.0567C229.993 22.7699 229.265 23.6116 227.807 25.2949L224.419 29.2068Z" fill="#4785FF"/>
<rect x="1.5" y="1.5" width="247" height="45" rx="6.5" stroke="#B8CFFF" stroke-width="3"/>
</g>
</svg>
